<?xml version="1.0" encoding="UTF-8" standalone="no"?>
<!DOCTYPE svg PUBLIC "-//W3C//DTD SVG 1.1//EN" "http://www.w3.org/Graphics/SVG/1.1/DTD/svg11.dtd">
<svg width="100%" height="100%" viewBox="0 0 636 216" version="1.1" xmlns="http://www.w3.org/2000/svg" xmlns:xlink="http://www.w3.org/1999/xlink" xml:space="preserve" xmlns:serif="http://www.serif.com/" style="fill-rule:evenodd;clip-rule:evenodd;stroke-linejoin:round;stroke-miterlimit:1.41421;">
    <g>
        <rect x="0.5" y="131.593" width="635" height="30" style="fill:url(#_Linear1);"/>
        <g transform="matrix(0.981913,0,0,0.981913,-3204.73,-129.056)">
            <path d="M3400.82,235.541c-4.855,-5.041 -10.549,-8.962 -17.084,-11.762c-6.535,-2.801 -13.35,-4.201 -20.445,-4.201c-9.149,0 -17.364,1.727 -24.646,5.181c-7.281,3.454 -13.49,8.075 -18.624,13.863c-5.135,5.788 -9.102,12.51 -11.903,20.165c-2.801,7.655 -4.201,15.683 -4.201,24.085c0,8.402 1.4,16.431 4.201,24.086c2.801,7.655 6.768,14.33 11.903,20.025c5.134,5.694 11.343,10.222 18.624,13.583c7.282,3.361 15.497,5.041 24.646,5.041c7.095,0 14.05,-1.214 20.865,-3.641c6.815,-2.427 12.743,-6.068 17.784,-10.922l4.201,3.921c-5.601,5.601 -12.183,9.662 -19.745,12.182c-7.561,2.521 -15.263,3.781 -23.105,3.781c-9.522,0 -18.251,-1.68 -26.186,-5.041c-7.935,-3.361 -14.844,-8.028 -20.725,-14.003c-5.881,-5.975 -10.456,-13.163 -13.723,-21.565c-3.268,-8.402 -4.901,-17.551 -4.901,-27.447c0,-9.895 1.633,-19.044 4.901,-27.446c3.267,-8.402 7.842,-15.637 13.723,-21.705c5.881,-6.068 12.79,-10.829 20.725,-14.283c7.935,-3.455 16.664,-5.182 26.186,-5.182c8.215,0 16.01,1.494 23.385,4.481c7.376,2.988 13.677,7.189 18.905,12.603l-4.761,4.201Z" style="fill:#fff;fill-rule:nonzero;"/>
            <path d="M3515.92,313.399c0,5.788 -1.121,10.97 -3.361,15.544c-2.241,4.574 -5.275,8.449 -9.102,11.623c-3.828,3.174 -8.262,5.601 -13.303,7.282c-5.042,1.68 -10.456,2.52 -16.244,2.52c-9.522,0 -18.158,-1.82 -25.906,-5.461c-7.749,-3.641 -14.143,-9.009 -19.185,-16.104l5.042,-3.361c9.335,13.07 22.778,19.605 40.329,19.605c4.108,0 8.262,-0.654 12.463,-1.961c4.201,-1.307 8.028,-3.267 11.483,-5.881c3.454,-2.614 6.254,-5.881 8.401,-9.802c2.148,-3.921 3.221,-8.402 3.221,-13.443c0,-5.975 -1.353,-10.83 -4.061,-14.564c-2.707,-3.734 -6.114,-6.721 -10.222,-8.962c-4.108,-2.24 -8.635,-4.061 -13.583,-5.461c-4.948,-1.401 -9.569,-2.661 -13.864,-3.781c-4.667,-1.307 -9.055,-2.754 -13.163,-4.341c-4.107,-1.587 -7.701,-3.641 -10.782,-6.162c-3.081,-2.52 -5.508,-5.647 -7.282,-9.382c-1.774,-3.734 -2.66,-8.402 -2.66,-14.003c0,-5.601 1.12,-10.456 3.36,-14.563c2.241,-4.108 5.228,-7.515 8.962,-10.223c3.735,-2.707 7.982,-4.761 12.743,-6.161c4.762,-1.401 9.569,-2.101 14.424,-2.101c17.551,0 30.714,6.255 39.489,18.765l-5.321,3.08c-4.295,-5.601 -9.149,-9.755 -14.564,-12.463c-5.414,-2.707 -11.949,-4.06 -19.604,-4.06c-3.548,0 -7.282,0.466 -11.203,1.4c-3.921,0.933 -7.515,2.474 -10.782,4.621c-3.268,2.147 -5.975,4.994 -8.122,8.542c-2.147,3.547 -3.221,7.842 -3.221,12.883c0,5.601 0.887,10.082 2.661,13.443c1.773,3.361 4.247,6.068 7.421,8.122c3.174,2.054 7.002,3.781 11.483,5.181c4.481,1.401 9.429,2.754 14.844,4.061c5.041,1.307 9.942,2.847 14.703,4.621c4.761,1.774 8.962,3.968 12.603,6.582c3.641,2.614 6.535,5.881 8.682,9.802c2.147,3.921 3.221,8.775 3.221,14.563Z" style="fill:#fff;fill-rule:nonzero;"/>
            <path d="M3632.15,313.399c0,5.788 -1.12,10.97 -3.361,15.544c-2.24,4.574 -5.275,8.449 -9.102,11.623c-3.828,3.174 -8.262,5.601 -13.303,7.282c-5.041,1.68 -10.456,2.52 -16.244,2.52c-9.522,0 -18.158,-1.82 -25.906,-5.461c-7.749,-3.641 -14.143,-9.009 -19.185,-16.104l5.042,-3.361c9.335,13.07 22.778,19.605 40.329,19.605c4.108,0 8.262,-0.654 12.463,-1.961c4.201,-1.307 8.029,-3.267 11.483,-5.881c3.454,-2.614 6.254,-5.881 8.402,-9.802c2.147,-3.921 3.22,-8.402 3.22,-13.443c0,-5.975 -1.353,-10.83 -4.061,-14.564c-2.707,-3.734 -6.114,-6.721 -10.222,-8.962c-4.108,-2.24 -8.635,-4.061 -13.583,-5.461c-4.948,-1.401 -9.569,-2.661 -13.863,-3.781c-4.668,-1.307 -9.056,-2.754 -13.163,-4.341c-4.108,-1.587 -7.702,-3.641 -10.783,-6.162c-3.081,-2.52 -5.508,-5.647 -7.282,-9.382c-1.773,-3.734 -2.66,-8.402 -2.66,-14.003c0,-5.601 1.12,-10.456 3.361,-14.563c2.24,-4.108 5.227,-7.515 8.962,-10.223c3.734,-2.707 7.981,-4.761 12.743,-6.161c4.761,-1.401 9.568,-2.101 14.423,-2.101c17.551,0 30.714,6.255 39.489,18.765l-5.321,3.08c-4.294,-5.601 -9.149,-9.755 -14.563,-12.463c-5.415,-2.707 -11.95,-4.06 -19.605,-4.06c-3.548,0 -7.282,0.466 -11.203,1.4c-3.921,0.933 -7.515,2.474 -10.782,4.621c-3.268,2.147 -5.975,4.994 -8.122,8.542c-2.147,3.547 -3.221,7.842 -3.221,12.883c0,5.601 0.887,10.082 2.661,13.443c1.774,3.361 4.247,6.068 7.422,8.122c3.174,2.054 7.001,3.781 11.482,5.181c4.481,1.401 9.429,2.754 14.844,4.061c5.041,1.307 9.942,2.847 14.703,4.621c4.761,1.774 8.962,3.968 12.603,6.582c3.641,2.614 6.535,5.881 8.682,9.802c2.147,3.921 3.221,8.775 3.221,14.563Z" style="fill:#fff;fill-rule:nonzero;"/>
            <path d="M3732.41,235.821l-30.807,0l0,111.186l-26.326,0l0,-111.186l-26.326,0l0,-21.565l26.326,0l0,-27.726c0,-7.842 0.887,-15.077 2.661,-21.705c1.773,-6.628 4.667,-12.37 8.682,-17.224c4.014,-4.855 9.148,-8.682 15.403,-11.483c6.255,-2.801 13.863,-4.201 22.825,-4.201c6.349,0 11.857,0.654 16.524,1.961l-3.08,22.685c-2.054,-0.56 -4.108,-1.027 -6.162,-1.401c-2.054,-0.373 -4.387,-0.56 -7.001,-0.56c-5.042,0 -9.103,0.887 -12.183,2.661c-3.081,1.774 -5.462,4.154 -7.142,7.142c-1.68,2.987 -2.801,6.394 -3.361,10.222c-0.56,3.828 -0.84,7.795 -0.84,11.903l0,27.726l30.807,0l0,21.565Z" style="fill:#fff;fill-rule:nonzero;"/>
            <path d="M3789.27,277.271l-48.452,-63.015l32.488,0l32.487,45.651l32.768,-45.651l30.807,0l-47.891,62.735l53.493,70.016l-32.768,0l-36.969,-51.812l-37.528,51.812l-31.648,0l53.213,-69.736Z" style="fill:#fff;fill-rule:nonzero;"/>
        </g>
    </g>
    <defs>
        <linearGradient id="_Linear1" x1="0" y1="0" x2="1" y2="0" gradientUnits="userSpaceOnUse" gradientTransform="matrix(635,0,0,30,0.5,146.593)"><stop offset="0" style="stop-color:#3cecff;stop-opacity:1"/><stop offset="0.57" style="stop-color:#c2689a;stop-opacity:1"/><stop offset="1" style="stop-color:#ff2c6d;stop-opacity:1"/></linearGradient>
    </defs>
</svg>
