<?xml version="1.0" encoding="UTF-8" standalone="no"?><!DOCTYPE svg PUBLIC "-//W3C//DTD SVG 1.1//EN" "http://www.w3.org/Graphics/SVG/1.1/DTD/svg11.dtd"><svg width="100%" height="100%" viewBox="0 0 676 102" version="1.1" xmlns="http://www.w3.org/2000/svg" xmlns:xlink="http://www.w3.org/1999/xlink" xml:space="preserve" xmlns:serif="http://www.serif.com/" style="fill-rule:evenodd;clip-rule:evenodd;stroke-linejoin:round;stroke-miterlimit:1.41421;"><g><rect x="0.5" y="44" width="675" height="14" style="fill:url(#_Linear1);"/><path d="M80.96,0.67c11.573,0 21.187,2.777 28.84,8.33c7.653,5.553 13.16,13.183 16.52,22.89l-6.58,0c-2.8,-7.653 -7.513,-13.79 -14.14,-18.41c-6.627,-4.62 -14.84,-6.93 -24.64,-6.93c-7.467,0 -14.21,1.797 -20.23,5.39c-6.02,3.593 -10.78,8.75 -14.28,15.47c-3.5,6.72 -5.25,14.607 -5.25,23.66c0,8.96 1.75,16.8 5.25,23.52c3.5,6.72 8.26,11.877 14.28,15.47c6.02,3.593 12.763,5.39 20.23,5.39c9.8,0 18.013,-2.31 24.64,-6.93c6.627,-4.62 11.34,-10.71 14.14,-18.27l6.58,0c-3.36,9.707 -8.867,17.313 -16.52,22.82c-7.653,5.507 -17.267,8.26 -28.84,8.26c-8.96,0 -16.963,-2.123 -24.01,-6.37c-7.047,-4.247 -12.53,-10.197 -16.45,-17.85c-3.92,-7.653 -5.88,-16.333 -5.88,-26.04c0,-9.707 1.96,-18.387 5.88,-26.04c3.92,-7.653 9.403,-13.627 16.45,-17.92c7.047,-4.293 15.05,-6.44 24.01,-6.44Z" style="fill:#fff;fill-rule:nonzero;"/><path d="M256.8,75.99c0,4.293 -0.98,8.377 -2.94,12.25c-1.96,3.873 -5.04,7.023 -9.24,9.45c-4.2,2.427 -9.473,3.64 -15.82,3.64c-6.067,0 -11.48,-1.167 -16.24,-3.5c-4.76,-2.333 -8.54,-5.46 -11.34,-9.38c-2.8,-3.92 -4.433,-8.167 -4.9,-12.74l6.58,0c0.467,2.987 1.657,6.067 3.57,9.24c1.913,3.173 4.737,5.833 8.47,7.98c3.733,2.147 8.307,3.22 13.72,3.22c6.907,0 12.227,-1.913 15.96,-5.74c3.733,-3.827 5.6,-8.587 5.6,-14.28c0,-4.947 -1.167,-8.913 -3.5,-11.9c-2.333,-2.987 -5.203,-5.273 -8.61,-6.86c-3.407,-1.587 -8.05,-3.267 -13.93,-5.04c-6.253,-1.867 -11.247,-3.663 -14.98,-5.39c-3.733,-1.727 -6.883,-4.363 -9.45,-7.91c-2.567,-3.547 -3.85,-8.213 -3.85,-14c0,-7.093 2.473,-12.927 7.42,-17.5c4.947,-4.573 11.807,-6.86 20.58,-6.86c8.867,0 15.89,2.217 21.07,6.65c5.18,4.433 8.377,9.73 9.59,15.89l-6.72,0c-0.933,-4.387 -3.407,-8.377 -7.42,-11.97c-4.013,-3.593 -9.52,-5.39 -16.52,-5.39c-6.44,0 -11.597,1.657 -15.47,4.97c-3.873,3.313 -5.81,8.003 -5.81,14.07c0,4.667 1.12,8.423 3.36,11.27c2.24,2.847 5.017,5.04 8.33,6.58c3.313,1.54 7.817,3.15 13.51,4.83c6.347,1.867 11.433,3.71 15.26,5.53c3.827,1.82 7.07,4.55 9.73,8.19c2.66,3.64 3.99,8.54 3.99,14.7Z" style="fill:#fff;fill-rule:nonzero;"/><path d="M387.28,75.99c0,4.293 -0.98,8.377 -2.94,12.25c-1.96,3.873 -5.04,7.023 -9.24,9.45c-4.2,2.427 -9.473,3.64 -15.82,3.64c-6.067,0 -11.48,-1.167 -16.24,-3.5c-4.76,-2.333 -8.54,-5.46 -11.34,-9.38c-2.8,-3.92 -4.433,-8.167 -4.9,-12.74l6.58,0c0.467,2.987 1.657,6.067 3.57,9.24c1.913,3.173 4.737,5.833 8.47,7.98c3.733,2.147 8.307,3.22 13.72,3.22c6.907,0 12.227,-1.913 15.96,-5.74c3.733,-3.827 5.6,-8.587 5.6,-14.28c0,-4.947 -1.167,-8.913 -3.5,-11.9c-2.333,-2.987 -5.203,-5.273 -8.61,-6.86c-3.407,-1.587 -8.05,-3.267 -13.93,-5.04c-6.253,-1.867 -11.247,-3.663 -14.98,-5.39c-3.733,-1.727 -6.883,-4.363 -9.45,-7.91c-2.567,-3.547 -3.85,-8.213 -3.85,-14c0,-7.093 2.473,-12.927 7.42,-17.5c4.947,-4.573 11.807,-6.86 20.58,-6.86c8.867,0 15.89,2.217 21.07,6.65c5.18,4.433 8.377,9.73 9.59,15.89l-6.72,0c-0.933,-4.387 -3.407,-8.377 -7.42,-11.97c-4.013,-3.593 -9.52,-5.39 -16.52,-5.39c-6.44,0 -11.597,1.657 -15.47,4.97c-3.873,3.313 -5.81,8.003 -5.81,14.07c0,4.667 1.12,8.423 3.36,11.27c2.24,2.847 5.017,5.04 8.33,6.58c3.313,1.54 7.817,3.15 13.51,4.83c6.347,1.867 11.433,3.71 15.26,5.53c3.827,1.82 7.07,4.55 9.73,8.19c2.66,3.64 3.99,8.54 3.99,14.7Z" style="fill:#fff;fill-rule:nonzero;"/><path d="M511.18,1.65l0,5.32l-44.52,0l0,41.58l39.48,0l0,5.04l-39.48,0l0,46.76l-6.3,0l0,-98.7l50.82,0Z" style="fill:#fff;fill-rule:nonzero;"/><path d="M633.96,100.35l-27.02,-44.38l-25.48,44.38l-7.14,0l29.26,-50.12l-29.54,-48.58l7.42,0l26.6,43.68l25.76,-43.68l7.14,0l-29.54,49.42l29.96,49.28l-7.42,0Z" style="fill:#fff;fill-rule:nonzero;"/></g><defs><linearGradient id="_Linear1" x1="0" y1="0" x2="1" y2="0" gradientUnits="userSpaceOnUse" gradientTransform="matrix(675,0,0,14,0.5,51)"><stop offset="0" style="stop-color:#2ceafc;stop-opacity:1"/><stop offset="1" style="stop-color:#fe2d6f;stop-opacity:1"/></linearGradient></defs></svg>