<?xml version="1.0" encoding="UTF-8" standalone="no"?><!DOCTYPE svg PUBLIC "-//W3C//DTD SVG 1.1//EN" "http://www.w3.org/Graphics/SVG/1.1/DTD/svg11.dtd"><svg width="100%" height="100%" viewBox="0 0 833 170" version="1.1" xmlns="http://www.w3.org/2000/svg" xmlns:xlink="http://www.w3.org/1999/xlink" xml:space="preserve" xmlns:serif="http://www.serif.com/" style="fill-rule:evenodd;clip-rule:evenodd;stroke-miterlimit:10;"><g><g><circle cx="85.054" cy="85" r="84.231" style="fill:#3cecff;"/><circle cx="152.439" cy="85" r="84.231" style="fill:#ff2c6d;"/><circle cx="118.746" cy="85" r="84.231" style="fill:#141414;"/></g><g transform="matrix(0.982698,0,0,0.982698,35.5065,-263.697)"><path d="M358.85,412.374c-4.654,3.823 -10.347,6.856 -17.078,9.1c-6.732,2.244 -13.505,3.366 -20.319,3.366c-11.635,0 -21.898,-2.244 -30.79,-6.732c-8.893,-4.487 -15.749,-10.928 -20.569,-19.321c-4.82,-8.394 -7.23,-18.242 -7.23,-29.544c0,-11.136 2.576,-20.901 7.729,-29.295c5.152,-8.393 12.008,-14.834 20.568,-19.321c8.56,-4.488 17.743,-6.732 27.549,-6.732c16.621,0 30.334,4.488 41.137,13.463l-13.961,18.2c-3.158,-2.493 -6.857,-4.612 -11.095,-6.357c-4.238,-1.746 -8.767,-2.618 -13.587,-2.618c-8.477,0 -15.666,3.116 -21.566,9.349c-5.901,6.233 -8.851,14.003 -8.851,23.311c0,9.308 3.117,17.078 9.35,23.311c6.232,6.233 14.169,9.349 23.809,9.349c8.31,0 15.291,-2.327 20.942,-6.981l13.962,17.452Z" style="fill:#141414;fill-rule:nonzero;"/><path d="M419.184,424.341c-8.144,0 -15.832,-1.454 -23.062,-4.363c-7.23,-2.908 -13.172,-7.022 -17.826,-12.341l11.718,-15.707c8.809,8.643 17.784,12.965 26.926,12.965c4.986,0 9.1,-0.956 12.341,-2.867c3.241,-1.912 4.862,-4.779 4.862,-8.602c0,-3.989 -1.662,-6.981 -4.987,-8.975c-3.324,-1.995 -7.022,-3.615 -11.094,-4.862c-4.072,-1.246 -6.69,-2.036 -7.853,-2.368c-9.142,-2.826 -15.957,-6.939 -20.444,-12.341c-4.488,-5.402 -6.732,-11.759 -6.732,-19.073c0,-5.817 1.455,-11.26 4.363,-16.33c2.909,-5.069 7.314,-9.183 13.214,-12.341c5.9,-3.158 13.089,-4.737 21.566,-4.737c7.978,0 14.917,0.914 20.817,2.743c5.901,1.828 11.427,4.737 16.58,8.726l-10.721,16.704c-2.992,-2.826 -6.607,-5.07 -10.845,-6.732c-4.238,-1.662 -8.103,-2.493 -11.593,-2.493c-4.322,0 -7.895,0.997 -10.721,2.992c-2.825,1.994 -4.238,4.571 -4.238,7.729c-0.166,3.822 1.247,6.69 4.238,8.601c2.992,1.911 7.812,3.947 14.461,6.108c2.825,0.831 4.653,1.413 5.485,1.745c8.31,2.66 14.792,6.358 19.446,11.095c4.654,4.737 6.981,10.928 6.981,18.574c0,10.305 -3.698,18.906 -11.095,25.804c-7.396,6.897 -17.992,10.346 -31.787,10.346Z" style="fill:#141414;fill-rule:nonzero;"/><path d="M524.644,424.341c-8.145,0 -15.832,-1.454 -23.062,-4.363c-7.23,-2.908 -13.172,-7.022 -17.826,-12.341l11.718,-15.707c8.809,8.643 17.784,12.965 26.926,12.965c4.986,0 9.1,-0.956 12.341,-2.867c3.241,-1.912 4.861,-4.779 4.861,-8.602c0,-3.989 -1.662,-6.981 -4.986,-8.975c-3.324,-1.995 -7.022,-3.615 -11.094,-4.862c-4.073,-1.246 -6.69,-2.036 -7.854,-2.368c-9.141,-2.826 -15.956,-6.939 -20.444,-12.341c-4.487,-5.402 -6.731,-11.759 -6.731,-19.073c0,-5.817 1.454,-11.26 4.363,-16.33c2.909,-5.069 7.313,-9.183 13.214,-12.341c5.9,-3.158 13.089,-4.737 21.565,-4.737c7.978,0 14.918,0.914 20.818,2.743c5.9,1.828 11.427,4.737 16.579,8.726l-10.72,16.704c-2.992,-2.826 -6.607,-5.07 -10.845,-6.732c-4.239,-1.662 -8.103,-2.493 -11.593,-2.493c-4.322,0 -7.895,0.997 -10.721,2.992c-2.825,1.994 -4.238,4.571 -4.238,7.729c-0.166,3.822 1.246,6.69 4.238,8.601c2.992,1.911 7.812,3.947 14.46,6.108c2.826,0.831 4.654,1.413 5.485,1.745c8.311,2.66 14.793,6.358 19.447,11.095c4.654,4.737 6.98,10.928 6.98,18.574c0,10.305 -3.698,18.906 -11.094,25.804c-7.396,6.897 -17.992,10.346 -31.787,10.346Z" style="fill:#141414;fill-rule:nonzero;"/><path d="M678.063,284.832l0,3.771l-71.238,0l0,65.483l63.499,0l0,3.77l-63.499,0l0,66.277l-3.968,0l0,-139.301l75.206,0Z" style="fill:#141414;fill-rule:nonzero;stroke:#000;stroke-width:2.29px;"/><path d="M794.742,424.133l-44.449,-68.46l-43.457,68.46l-4.564,0l45.838,-71.833l-43.854,-67.468l4.564,0l42.068,64.491l41.076,-64.491l4.564,0l-43.457,67.865l46.433,71.436l-4.762,0Z" style="fill:#141414;fill-rule:nonzero;stroke:#000;stroke-width:2.29px;"/></g></g></svg>